<?xml version="1.0" standalone="no"?>
<!DOCTYPE svg PUBLIC "-//W3C//DTD SVG 20010904//EN"
 "http://www.w3.org/TR/2001/REC-SVG-20010904/DTD/svg10.dtd">
<svg version="1.0" xmlns="http://www.w3.org/2000/svg"
 width="418.000000pt" height="418.000000pt" viewBox="0 0 418.000000 418.000000"
 preserveAspectRatio="xMidYMid meet">
<metadata>
Created by potrace 1.14, written by Peter Selinger 2001-2017
</metadata>
<g transform="translate(0.000000,418.000000) scale(0.100000,-0.100000)"
fill="#000000" stroke="none">
<path d="M1915 3740 c-128 -15 -271 -77 -372 -161 -26 -21 -55 -39 -63 -39
-31 0 -138 -80 -206 -154 -138 -149 -267 -454 -305 -721 -36 -257 -47 -416
-30 -443 5 -8 24 -17 42 -21 32 -6 34 -9 34 -49 0 -44 14 -62 47 -62 12 0 21
-13 28 -40 6 -22 15 -40 20 -40 6 0 10 -10 11 -22 1 -17 3 -14 9 9 8 36 36 83
49 83 15 0 28 -24 40 -75 9 -34 9 -51 2 -53 -7 -2 -6 -8 3 -17 18 -18 41 -198
26 -203 -7 -3 -6 -8 3 -16 15 -12 52 -157 45 -178 -3 -7 2 -19 10 -27 11 -12
11 -15 0 -21 -7 -4 -191 -10 -408 -14 -628 -10 -919 -20 -825 -27 44 -3 233
-2 420 4 502 15 817 15 822 0 4 -10 -40 -13 -198 -13 -111 0 -200 -3 -197 -6
4 -3 97 -6 208 -6 l201 0 24 -38 c38 -60 52 -59 18 1 -66 116 -123 421 -123
655 l0 132 40 7 c41 7 70 34 70 67 0 27 20 32 42 9 17 -20 26 -21 81 -15 141
15 142 15 145 57 4 46 19 47 54 5 25 -31 27 -32 46 -15 18 16 20 16 37 -3 17
-19 28 -20 199 -18 147 2 180 6 178 17 -4 19 28 111 38 111 5 0 12 -15 16 -32
11 -54 36 -96 58 -102 12 -3 49 -6 84 -6 57 0 63 2 74 25 l11 24 25 -19 c21
-17 41 -20 132 -20 l108 0 12 30 c15 37 37 39 50 5 11 -29 22 -31 40 -10 16
19 30 19 30 0 0 -34 23 -65 50 -65 37 0 90 -19 91 -33 2 -16 3 -7 -20 -163
-72 -495 -149 -705 -324 -876 -41 -40 -62 -68 -55 -71 40 -13 -85 -86 -219
-128 -40 -13 -73 -27 -73 -31 0 -4 -7 -8 -15 -8 -9 0 -25 -16 -36 -35 -12 -19
-25 -35 -30 -35 -5 0 -9 -7 -9 -15 0 -8 -4 -15 -9 -15 -14 0 -22 48 -15 86 6
31 17 39 45 36 42 -6 362 125 332 135 -6 2 -33 -9 -59 -24 -58 -34 -190 -80
-255 -89 -44 -6 -47 -5 -53 21 -4 15 -7 71 -7 124 1 115 -3 168 -11 176 -3 3
-4 -18 -2 -47 2 -29 1 -178 -2 -331 -6 -255 -8 -277 -24 -277 -26 0 -29 27
-26 200 1 85 -1 193 -4 240 l-7 85 -1 -94 -2 -94 -52 7 c-120 16 -391 128
-459 190 -13 12 -46 42 -74 66 l-49 45 32 -41 c35 -46 40 -64 17 -64 -24 0
-35 -35 -35 -112 0 -40 -3 -82 -6 -94 -4 -14 -45 -41 -137 -88 -156 -79 -174
-88 -382 -202 -88 -48 -178 -99 -200 -114 -22 -14 -66 -44 -98 -64 -68 -46
-132 -106 -169 -161 -39 -58 -97 -239 -98 -307 l0 -28 686 0 686 0 -6 27 c-11
54 -36 289 -36 343 0 76 -8 104 -26 89 -11 -9 -19 -8 -34 6 -26 24 -25 37 5
67 66 67 530 102 808 62 130 -19 177 -35 177 -61 0 -36 -17 -40 -93 -21 -39
11 -103 21 -142 23 -74 4 -66 2 55 -16 41 -6 88 -18 103 -26 27 -14 28 -16 25
-86 -3 -65 -5 -72 -23 -69 -11 1 1 -9 27 -23 56 -30 84 -66 98 -130 6 -26 20
-67 30 -91 24 -51 25 -74 6 -74 -8 0 -51 14 -95 31 -72 27 -84 35 -101 70 -22
41 -50 64 -90 73 -206 44 -266 60 -273 69 -26 40 -29 50 -16 74 7 13 18 22 25
19 7 -3 15 2 18 10 3 8 15 14 27 14 12 0 20 3 16 6 -11 11 -68 -8 -87 -29 -28
-29 -24 -67 10 -104 23 -25 38 -33 64 -33 19 0 38 -5 41 -11 4 -6 14 -8 22 -5
16 7 78 -8 102 -23 11 -7 10 -13 -6 -31 -15 -15 -37 -23 -77 -27 -31 -3 -56
-9 -56 -13 0 -3 32 -2 70 3 81 10 145 -5 303 -73 l89 -39 565 -1 565 -1 -6 48
c-14 101 -29 180 -42 218 -22 64 -75 136 -134 182 -30 23 -62 49 -72 57 -60
52 -203 137 -438 261 -164 87 -276 147 -369 199 l-56 32 -3 69 c-2 48 -9 76
-22 95 l-19 27 69 104 c38 57 70 110 70 117 0 6 6 13 13 13 11 2 333 4 1085 8
222 1 272 3 272 15 0 11 -37 13 -207 10 -364 -7 -1143 -11 -1143 -7 0 2 12 20
26 39 15 19 21 34 15 34 -16 0 -13 36 10 120 23 86 35 105 55 89 9 -8 15 -5
23 10 16 29 14 33 -9 19 -17 -11 -22 -10 -30 2 -13 21 -1 91 20 115 10 11 21
30 25 43 11 37 35 27 36 -15 0 -31 2 -34 9 -18 23 54 -1 92 -42 66 -11 -7 -22
-11 -24 -9 -5 6 21 100 35 126 14 26 46 29 55 6 22 -57 -13 -342 -52 -422 -11
-23 -16 -40 -11 -36 30 18 62 146 78 313 7 72 6 107 -4 145 -11 39 -11 60 -3
91 16 55 25 65 63 65 42 0 52 13 58 78 4 41 12 61 33 84 l29 29 -2 144 c-3
278 -32 439 -105 595 -56 120 -108 201 -157 244 -19 17 -53 50 -77 73 -24 23
-64 56 -89 73 -88 60 -286 142 -410 169 -121 27 -341 37 -470 21z m375 -69 c0
-5 13 -12 29 -16 31 -7 64 -35 41 -35 -17 0 -90 42 -90 52 0 4 5 8 10 8 6 0
10 -4 10 -9z m-737 -2529 c-4 -38 95 -98 272 -163 122 -46 165 -67 165 -84 0
-20 -15 -19 -96 9 -262 91 -387 172 -370 241 8 31 32 28 29 -3z m1102 -9 c-19
-111 -46 -143 -166 -197 -62 -28 -239 -77 -252 -69 -17 10 25 41 86 63 194 68
295 133 302 195 2 20 17 45 27 45 5 0 6 -16 3 -37z m-45 -22 c0 -6 -4 -13 -10
-16 -5 -3 -10 1 -10 9 0 9 5 16 10 16 6 0 10 -4 10 -9z m-985 -11 c3 -5 2 -10
-4 -10 -5 0 -13 5 -16 10 -3 6 -2 10 4 10 5 0 13 -4 16 -10z m225 -96 c52 -17
118 -35 145 -39 77 -11 85 -18 84 -73 0 -26 -4 -55 -8 -65 -6 -16 -10 -14 -33
20 -14 21 -29 48 -32 59 -4 12 -21 27 -39 34 -67 25 -224 92 -238 102 -10 7
-9 8 6 2 11 -4 63 -22 115 -40z m609 -839 c27 -14 47 -42 37 -53 -18 -17 -105
36 -92 56 9 16 21 15 55 -3z"/>
<path d="M1640 2240 c-46 -3 -18 -6 95 -10 l160 -5 3 -28 c5 -39 -43 -136 -85
-174 -34 -31 -47 -36 -123 -48 -57 -10 -49 -18 10 -11 98 13 159 64 195 165
18 53 19 85 3 99 -15 12 -167 19 -258 12z"/>
<path d="M2553 2243 c9 -2 23 -2 30 0 6 3 -1 5 -18 5 -16 0 -22 -2 -12 -5z"/>
<path d="M2362 2224 c-24 -16 -30 -66 -12 -94 7 -11 10 -4 10 26 0 53 15 65
93 74 l62 7 -65 2 c-45 1 -73 -4 -88 -15z"/>
<path d="M2760 2227 l45 -13 0 -52 c-1 -59 14 -55 22 6 6 46 -5 56 -72 66
l-40 6 45 -13z"/>
<path d="M1453 2220 c-35 -14 -42 -37 -27 -92 7 -28 14 -52 16 -53 2 -2 2 27
0 65 l-4 68 48 7 c67 9 76 13 29 14 -22 0 -50 -4 -62 -9z"/>
<path d="M2556 2157 c-16 -12 -16 -14 -2 -26 19 -16 36 -6 36 20 0 22 -9 24
-34 6z"/>
<path d="M1654 2149 c-9 -16 18 -30 33 -17 7 6 10 14 7 19 -7 13 -31 11 -40
-2z"/>
<path d="M2148 2068 c-1 -40 -2 -86 -3 -103 -1 -16 2 -41 6 -55 4 -14 7 32 8
103 1 134 -8 178 -11 55z"/>
<path d="M2786 2073 c-6 -14 -5 -15 5 -6 7 7 10 15 7 18 -3 3 -9 -2 -12 -12z"/>
<path d="M2390 2052 c6 -13 14 -21 18 -18 3 4 -2 14 -12 24 -18 16 -18 16 -6
-6z"/>
<path d="M2705 2004 c-27 -13 -39 -21 -25 -18 29 8 80 32 80 39 0 6 4 8 -55
-21z"/>
<path d="M1618 1973 c7 -3 16 -2 19 1 4 3 -2 6 -13 5 -11 0 -14 -3 -6 -6z"/>
<path d="M2568 1973 c12 -2 32 -2 45 0 12 2 2 4 -23 4 -25 0 -35 -2 -22 -4z"/>
<path d="M1180 1939 c0 -5 5 -7 10 -4 6 3 10 8 10 11 0 2 -4 4 -10 4 -5 0 -10
-5 -10 -11z"/>
<path d="M2991 1844 c0 -11 3 -14 6 -6 3 7 2 16 -1 19 -3 4 -6 -2 -5 -13z"/>
<path d="M1121 1810 c-1 -31 17 -97 29 -105 5 -3 4 9 -2 27 -5 18 -14 49 -18
68 -6 28 -8 30 -9 10z"/>
<path d="M4148 1773 c6 -2 18 -2 25 0 6 3 1 5 -13 5 -14 0 -19 -2 -12 -5z"/>
<path d="M1191 1754 c0 -11 3 -14 6 -6 3 7 2 16 -1 19 -3 4 -6 -2 -5 -13z"/>
<path d="M158 1753 c18 -2 45 -2 60 0 15 2 0 4 -33 4 -33 0 -45 -2 -27 -4z"/>
<path d="M1207 1709 c6 -22 23 -26 23 -5 0 8 -6 16 -14 19 -10 4 -12 0 -9 -14z"/>
<path d="M1161 1679 c-2 -32 71 -149 92 -149 6 0 0 12 -14 26 -13 14 -36 51
-51 82 -14 31 -27 50 -27 41z"/>
<path d="M2904 1525 c-10 -8 -14 -15 -8 -15 6 0 17 7 24 15 16 19 9 19 -16 0z"/>
<path d="M2884 1479 c-2 -3 76 -9 173 -13 211 -9 1123 4 1123 15 0 9 -1290 7
-1296 -2z"/>
<path d="M290 1436 c0 -9 40 -13 46 -5 3 5 -6 9 -20 9 -14 0 -26 -2 -26 -4z"/>
<path d="M670 1430 l-65 -7 88 -1 c52 -1 87 2 87 8 0 11 -6 11 -110 0z"/>
<path d="M858 1433 c7 -3 16 -2 19 1 4 3 -2 6 -13 5 -11 0 -14 -3 -6 -6z"/>
<path d="M808 1423 c7 -3 16 -2 19 1 4 3 -2 6 -13 5 -11 0 -14 -3 -6 -6z"/>
<path d="M2050 1403 c8 -3 18 -11 22 -17 13 -18 9 -80 -6 -102 -12 -16 -12
-26 -1 -57 14 -41 22 -53 30 -46 2 3 -2 23 -10 44 -9 28 -10 44 -3 52 6 7 11
36 12 65 1 45 4 53 20 53 13 0 20 -8 21 -22 2 -34 15 -41 15 -9 0 18 7 29 23
36 16 6 -1 9 -58 9 -44 -1 -73 -3 -65 -6z"/>
<path d="M1409 1313 c12 -24 31 -39 31 -25 0 5 -10 17 -21 28 -22 19 -22 19
-10 -3z"/>
<path d="M3176 1118 c7 -12 104 -10 104 2 0 6 -23 10 -55 9 -30 -1 -52 -6 -49
-11z"/>
<path d="M3298 1123 c7 -3 16 -2 19 1 4 3 -2 6 -13 5 -11 0 -14 -3 -6 -6z"/>
<path d="M1970 540 c-19 -4 26 -5 100 -3 74 3 137 7 139 9 8 7 -204 1 -239 -6z"/>
<path d="M1858 518 c7 -7 12 -30 12 -52 0 -52 13 -38 18 19 3 41 1 45 -19 45
-18 0 -20 -3 -11 -12z"/>
<path d="M1808 513 c7 -3 16 -2 19 1 4 3 -2 6 -13 5 -11 0 -14 -3 -6 -6z"/>
<path d="M1725 500 l-20 -9 20 1 c11 0 31 4 45 8 l25 8 -25 0 c-14 0 -34 -3
-45 -8z"/>
<path d="M2315 391 c44 -5 98 -13 119 -19 22 -6 42 -10 44 -7 10 10 -81 27
-158 30 l-85 4 80 -8z"/>
<path d="M1878 348 c-3 -7 -2 -67 2 -133 l7 -120 1 133 c2 125 0 148 -10 120z"/>
<path d="M2181 308 c-2 -29 27 -48 72 -47 26 1 32 3 17 6 -44 7 -79 24 -83 41
-4 16 -5 16 -6 0z"/>
<path d="M2044 60 c-22 -10 -47 -27 -55 -36 -9 -11 9 -5 49 15 57 29 74 42 55
41 -5 -1 -26 -9 -49 -20z"/>
</g>
</svg>
